<?xml version="1.0" encoding="utf-8"?>
<!-- Generator: Adobe Illustrator 21.1.0, SVG Export Plug-In . SVG Version: 6.00 Build 0)  -->
<svg version="1.1" id="レイヤー_1" xmlns="http://www.w3.org/2000/svg" xmlns:xlink="http://www.w3.org/1999/xlink" x="0px"
	 y="0px" viewBox="0 0 340.2 140.9" style="enable-background:new 0 0 340.2 140.9;" xml:space="preserve">
<style type="text/css">
	.st0{fill:#15243E;}
</style>
<g>
	<path class="st0" d="M38.8,112.6c-0.9,0-2.3-0.5-3.3-1c-1-0.5-1.8-0.7-2.4-0.7c-0.5,0-0.5,0-0.6-0.1c-0.2-0.1,0.1-0.4,1-1.1
		c5.2-4.5,6.9-5.5,8.8-6c0.9-0.2,0.9-0.6,0.9-0.9c-0.1-0.2-0.9-0.4-0.9-0.4c-5.7-1.4-16.8-10.5-16.8-10.5c-0.6-0.4-1.2-1.8-1.2-1.8
		c-0.9-1.8-1.2,0.2-1.2,0.2C22,93,20,94.2,18,94.8c-6.2,1.9-18,8-18,22.4c0,13.1,10.5,22,20.4,22c4.5,0,8.1-1.1,10.4-1.8
		c0.6-0.2,1.3-0.5,2.3-0.5c0.9,0,1.5,0.3,3,1.2c0.4,0.2,1.3,0.9,1.7,0.7c0.3-0.1,0.3-0.6,0.1-1.1c-0.3-0.9-0.6-1.9-0.6-4v-17.6
		c0-1.2,1.9-2.7,1.9-2.7C39.8,113,39.5,112.6,38.8,112.6z M10.5,123c-0.8-2.6-1.3-5.5-1.3-8.8c0-8,3.8-13.8,9.4-16.1
		c0.5-0.2,0.8-0.8,1.1-0.9c0.3-0.1,0.4,0.1,0.6,0.4c0.2,0.3,1,1.2,2.4,2.2c0,0,5.3,3.8,6.7,4.8c0.6,0.5,1.9,1,2.4,1.1
		c0.3,0.1,1.2,0.1-0.1,0.6c-0.4,0.2-0.9,0.5-1.3,0.9l-18.8,17C10.1,125.6,10.8,123.8,10.5,123z M12.7,129.1c-0.4,0-0.7-0.2-0.1-0.7
		l12.3-11.1c0.6-0.5,0.7-1.1,1.1-1.1c0.2,0,0.3,0.3,0.6,0.5c0.8,0.4,1.7,0.8,2.6,0.9c0.6,0.1,0.6,0.5,0.1,0.9
		c-0.4,0.4-0.4,0.9-0.4,2c0,0,0,12.9,0,13.3c0,1,0.6,1.5-0.9,1.3c-1.1-0.1-2.1,0.2-3.9,0.2c-3.4,0-7.5-2.2-10.1-5.6
		C13.5,129.1,13,129.1,12.7,129.1z"/>
	<path class="st0" d="M71.5,109c-1.7-0.3-3.9-3-3.9-3c-0.6-0.7-0.9-0.1-0.9-0.1c-1.1,1.7-5.7,5-5.7,5c-1.1,0.8-1.4,0.3-1.6-0.3
		c-0.3-1.2-1.3-1.6-2.1-2.1c-1.8-1.1-3.5-2.7-4.1-3.6c-0.4-0.5-0.9-0.3-1.1,0c-1.7,2-7.7,4.5-7.7,4.5c-1,0.4-0.9,1,0.1,1.1
		c5.3,0.8,7.1,2.5,7.1,5.4l0.1,16.7c0,1.4-0.2,1.9-0.9,2.3c-0.5,0.4-1.3,0.8-2.5,1.4c-1.5,0.7-1.3,0.9,0,0.9c0.7,0,15.5,0,15.5,0
		c0.6,0,1.1-0.1,0-0.7c-2.1-1-3.7-2-3.7-2c-0.6-0.4-0.7-0.9-0.7-2.2v-16.6c0-0.9,0-1.6,1.1-2.3c1.1-0.6,1.6-1,1.8-1.1
		c0.4-0.3,0.5-0.6,1-0.3c2.2,1.4,3.2,2.3,3.2,3.8c0,0.5,0.3,0.7,1,0c1.8-1.8,6.5-6.5,6.5-6.5c0.7-0.7,0.4-0.8-0.4-0.6
		C73.1,109.1,72.6,109.2,71.5,109z"/>
	<path class="st0" d="M90.6,116.5c-1-0.2-2.1-0.4-3.1-0.4c-7.4,0-16.2,5-16.2,13.6c0,3.6,2,6.8,6.1,8c1.4,0.4,2.2,1.3,2.5,1.9
		c0.3,0.5,0.6,0.8,0.8,0.7c0.3-0.2,0.3-0.6,1-1.3c3.1-2.9,7.7-6.3,8.7-7c0.2-0.2,0.7-0.4,0.8-0.3c0.1,0.1,0,0.3-0.1,0.6
		c-0.1,0.3-0.1,0.8-0.1,1.8c0,1.1,0.3,1.6,1.1,2.2c1.6,1,3.1,2.8,3.1,2.8c0.3,0.3,0.6,0.5,0.7,0.5c0.2-0.1,0.2-0.4,0.6-1
		c0.8-1.4,2.8-2.8,2.8-2.8c1.2-1,3.8-2.2,3.8-2.2c0.4-0.2,0.5-0.4,0.5-0.5s-0.4-0.2-0.8-0.2c-4.1-0.5-3.9-2.4-3.9-3.8
		c0-1.1,0-16.7,0-16.7c0-2.3-1.4-3.3-2.8-3.8c-1-0.4-5.2-2.1-5.2-2.1c-1.6-0.7-1.8-1.7-1.9-2.2c-0.1-0.5-0.4-0.5-0.8-0.2
		c-0.5,0.4-1.2,0.8-2,1.4l-9.5,6.1c-0.8,0.5-1.5,1.5,0.3,0.9c2.2-0.8,4.2-1.2,6.5-1.2c2.3,0,5.1,0.5,6.8,1.6
		c0.5,0.4,0.9,0.8,0.9,1.5v1.8C91.1,116.7,91,116.6,90.6,116.5z M89.4,128.8l-4.6,3.2c-1,0.8-2.5-0.1-2.5-0.1
		c-5.2-3.3-1.8-8.4-1.8-8.4c2.9-4.7,8.7-4.9,10.5-4.9c0.9,0,0.2,0.4,0.2,1.4v6.4C91.1,127.6,90.6,128,89.4,128.8z"/>
	<path class="st0" d="M127.6,104.9c-0.6-1.1-1.1-0.8-1.9,0.2c-1,1.2-5,3.8-7.4,5.2c-1,0.6-1.1,0.7-1.3,0.7c-0.4,0-0.2-0.3-0.8-0.7
		c-1.3-1.1-2.6-2.4-3.8-4.6c-0.3-0.6-0.3-0.9-0.8-0.9c-0.6,0-0.7,1-2,2.1c-1.8,1.5-3.5,2.7-6,4.1c-0.3,0.2-0.8,0.4-0.8,0.7
		c0,0.3,0.3,0.5,1.3,0.4c1,0,2.6-0.2,3.8,0.8c1.2,1,1.4,1.9,1.4,3.6c0,0,0,12.7,0,15.4c0,3.2-2.1,4-2.8,4.3
		c-1.1,0.5-0.7,0.9-0.1,0.9H120c1.2,0,0.7-0.5,0-0.7c-3.1-0.8-3-3.8-3-5.1c0-1,0-16.1,0-16.1c0-0.7,0.1-1,0.6-1.2
		c3.5-2,4.3-2.9,4.7-3.3c1.1-0.9,0.6,0.2,1.2,0.9c0.5,0.6,1.5,1.8,2.3,2.4c0.7,0.6,0.6,1.2,0.6,1.9c0,0.5,0,16.9,0,16.9
		c0,1.3,0.2,1.7,1,2.3c1.5,1.1,3,3.2,3,3.2c0.3,0.3,0.5,0.5,0.7,0.5c0.2-0.1,0.3-0.4,0.8-1.1c0.6-0.6,1.5-1.4,2.7-2.2
		c1.2-0.9,2.4-1.6,3.5-2.1c0.7-0.3,1.4-0.6,1.4-0.8c-0.1-0.3-0.8-0.3-1.2-0.3c-4.2-0.2-4.3-1.5-4.3-3.7c0-1.1,0-14.5,0-15.4
		s0.1-1.7-0.9-2.6C131.4,109,128.3,106.3,127.6,104.9z"/>
	<path class="st0" d="M170.9,5.1c-5.9,2.4-9.3,1.6-13.2-0.7c-3.6-2.1-6.7-4-11.4-4c-11.2,0-26.3,14.2-26.3,38.7
		c0,24.8,11.7,38.7,24.6,38.7c4.5,0,7.7-1.5,10.2-2.5c2.5-1,5.9-2.7,8.3-1.9c0.8,0.3,2.1,1,3.1,1.8c1.8,1.6,1.8,0.6,1.4-0.2
		c-0.3-0.7-0.6-1.7-0.6-2.6V45.3c0-2.2-0.2-4.4,3.8-7.5c0.5-0.4,0.5-0.7,0-1.1c-3-1.9-9.5-6.4-13.4-9.5l14.1-21.5
		C172,5,171.4,4.9,170.9,5.1z M146.1,6.3c2.6,0,6.3,1.8,8.7,4c2.1,1.9,3.7,5-0.3,11.2L134,52.2c-0.6-3.8-0.9-8.2-0.9-13.3
		C133.1,13.8,139.8,6.3,146.1,6.3z M158.1,41.2c0.4,0.3,0.1,0.6-0.5,1.1c-1.7,1.6-1.9,3-1.9,5.9V68c0,0.9-0.2,1.5-1.1,2.1
		c-1.1,0.7-3.3,2.4-7.5,2.4c-4.1,0-8.5-3.7-11.2-12.2l15.5-23.6L158.1,41.2z"/>
	<path class="st0" d="M160.3,108.2c0-4.3,0-7.6,0-7.9c0-1.9-0.4-2.5-1.1-3c-0.5-0.3-1.4-1-1.7-1.2c-1.1-0.7,0.1-0.8,0.7-0.8h12.4
		c0.3,0,1.1,0,0.4,0.5c-0.7,0.5-1.7,1.3-2.3,1.7c-0.6,0.4-0.7,0.8-0.7,1.8c0,0,0,28.5,0,29.6c0,1.4-0.1,2.9,3.9,4
		c0.4,0.1,0.7,0.2,0.7,0.3c0,0.1-0.2,0.2-0.6,0.4c0,0-2.5,1.2-3.7,2.2c0,0-1.9,1.5-2.8,2.9c-0.3,0.6-0.6,0.9-0.8,1
		c-0.2,0.1-0.4-0.2-0.6-0.5c0,0-1.4-1.8-3-2.8c-0.8-0.5-1.2-1.1-1.2-2.2c0-0.6,0.1-0.7-0.2-0.9c-0.3-0.2-1.3,0.3-1.7,0.7
		c-0.4,0.4-4.5,4.3-4.8,4.7c-0.8,0.7-0.9,1.3-1.3,1.2c-0.5-0.1-0.7-1-1.5-1.7c-3.7-3.3-10.3-6.9-10.3-14.4c0-9.6,7-14.9,12.3-17.5
		c0.8-0.4,1.7-1.4,2-1.9c0.2-0.5,0.4-0.8,0.7-0.8c0.3,0,0.4,0.1,0.6,0.7c0.2,0.5,0.6,1,1.1,1.5c0.4,0.5,2.4,2.7,2.7,3
		C159.8,109.2,160.3,109.6,160.3,108.2z M153.4,109.2c-2.8,2.8-4.8,6.3-4.8,11.9c0,3.4,1.5,5.6,4,7.8c1.2,1,2.4,2.1,3,2.7
		c0.3,0.3,0.4,0.4,0.5,0.4c0.2,0,0.3-0.1,0.5-0.4c0.2-0.3,0.7-1,1.4-1.6c0.8-0.6,1-0.7,1.4-0.9c0.7-0.4,0.8-0.8,0.8-2.5
		c0-1.1,0-4.7,0-11.1c0-0.8-0.3-1.1-0.8-1.6c-0.9-0.9-3.3-3.4-3.8-4.2c-0.6-0.7-0.5-1.8-0.9-1.8
		C154.3,107.9,154.1,108.5,153.4,109.2z"/>
	<path class="st0" d="M215,140.7c-6.8-5.9-11.6-7.5-17.3-9.1c-2.2-0.6-4.2,0-7.5,0.5c-1.2,0.2-1.1-0.1-0.5-0.5
		c3.2-2.1,9.8-6.8,12.3-9.1c0.3-0.3,0.6-0.6,0.6,0.1c0,0.8,0,1.8,1,2.4c2,1.2,3,1.6,5.5,2.6c2.6,1,4.6,2.1,6.4,3.7
		c0.5,0.5,1,1,1,1.7c0,0.5,0.2,0.7,0.8,0.2c0.3-0.3,1-1,1.9-1.8c0.8-0.7,2.2-2.5,2.2-4.2c0-1.5-0.9-2.1-2.1-3.3
		c-3.4-3.4-13.8-9.9-17.1-12c-3.3-2.2-6.4-4.7-6.4-7.4c0-2.9,2-4.9,3.9-6.3c1.7-1.2,5.4-3,7.8-4.1c2.4-1.2,5.1-3.2,5.6-4.4
		c0.1-0.3,0.2-0.4,0.4-0.4c0.2,0,0.3,0.2,0.8,0.8c1.4,1.6,5.6,5.4,9.2,6.7c1.7,0.6,3.3,0.6,4.3,0.5c0.5,0,0.6,0,0.7,0.1
		c0.1,0.1,0,0.3-0.5,0.6c-2.5,1.6-6,5.2-8.1,7.5c-0.2,0.2-0.4,0.3-0.6-0.1c-0.5-0.9-1.2-1.8-2.1-2.8c-1.6-1.6-5.7-4.2-7.5-5.8
		c-0.7-0.6-0.6-0.3-1,0.3c-0.4,0.5-1.8,1.3-2.8,2c-1.1,0.7-1.5,1.6-1.5,2.4c0,0.9,0.3,1.5,0.9,2c7.6,5.8,20.2,12.7,24,16.5
		c1.1,1.1,2.2,2.5,2.2,3.7c0,0.8-0.1,2.2-2.8,4.6c-2.8,2.3-10.9,9.3-12.5,12.1C215.7,140.9,215.6,141.2,215,140.7z"/>
	<path class="st0" d="M199,78.5c4.2-4.1,9.4-9.6,16.1-15.8c7.4-6.9,4.1-13.7-1.2-18.3C207.7,39,197.2,31,190.8,25
		c-5.2-5.2-4-9.4-0.7-12.3l2.8-2.4c0.3-0.2,0.5-0.3,0.8,0l15.9,12.9c1.5,1.2,1.7,2.4,2.1,1.7c1.6-3.1,5.3-6.9,8.3-9
		c0.5-0.4,0.2-0.6-0.3-0.7c-0.9,0-3.3-0.8-7.8-4.1c-5.7-4.2-10.2-7.8-12.5-9.6C198,0.4,198,0,197.6,0c-0.4,0-0.5,0.5-1.7,1.5
		c-3.4,2.7-11.2,9-15.2,12.1c-5.1,3.9-6.9,12.4-0.2,18.6c6.6,6.2,19.2,15.8,22.8,19.2c6.1,5.8,3.9,9.8,0.7,13c-1,1-2.4,2.4-3.1,2.9
		c-0.8,0.6-1.6,0.1-3.4-1.2c-3.6-2.5-9.4-6.9-13.9-10.9c-0.6-0.5-0.7-1.2-0.9-0.9c-1.7,2.3-6.5,6-9.8,8.1c-0.4,0.3,0,0.5,0.4,0.4
		c1.9-0.1,15.7,10.3,22.5,15.9c1,0.8,1.1,1.3,1.6,1.3C197.8,79.9,197.7,79.8,199,78.5z"/>
	<path class="st0" d="M275.2,110.4c0-1.4,0.5-1.9,1.3-2.3c0.5-0.2,0.6-0.3,0.6-0.5c0-0.2-0.3-0.4-0.7-0.5c-1.9-0.6-3.9-2.3-4.9-3.6
		c-0.4-0.5-0.6-0.7-0.9-0.7c-0.2,0-0.5,0.4-0.8,0.7c-1.8,2.1-4.3,3.8-6.8,5c-0.5,0.2-0.7,0.5-0.6,0.6c0,0.1,0.1,0.3,0.8,0.3
		c0.7,0,2.3,0,3,0c0.9,0.1,1.2,0.5,1.2,2.3c0,1.7,0,20.5,0,20.5c0,1.5-0.2,1.9-0.7,2.4c-0.5,0.4-1.1,0.9-2.1,1.5
		c-1.4,0.8-1.5,1.1-0.1,1.1c0.7,0,14.2,0,14.2,0c0.6,0,0.7-0.2-0.3-0.8c-1.5-0.9-2-1.2-2.5-1.7c-0.6-0.6-0.8-0.9-0.8-2.3V110.4z"/>
	<path class="st0" d="M263.6,98.1c1.6-0.7,4.2-1.8,5.7-4c0.5-0.7,0.6-1.2,1-1.1c0.4,0,0.5,0.4,0.9,1.1c0.9,1.6,1.9,3,6.4,4.5
		c1.6,0.5,1.2,1.2-0.6,1.3c-4.4,0.3-8.6,0.5-13.4-0.8C263,98.9,262.5,98.5,263.6,98.1z"/>
	<path class="st0" d="M291.9,116.8c0,0.6,0.4,1.1,1.4,0.9c5.3-1.1,7.9-3,7.9-4.8c0-1.8-3.5-3.4-6.4-3.4c-0.6,0-1.1,0.1-1.3-0.1
		c-0.1-0.2,0.1-0.4,0.3-0.6c2.3-1.7,5.3-4.4,6.1-6.1c0.3-0.8,0.1-1.3,1.7-0.1c2.8,2.1,7.7,5.2,7.7,7.8c0,2.9-3.2,5.2-9.4,7.8
		c-0.6,0.2-0.4,0.7,0.4,1c1.1,0.3,2.8,1.2,4,2.9c1.5,2.2,3.5,5.6,4.6,7.1c1.1,1.5,2.5,3.2,5.9,3.4c0.5,0,0.8,0.3,0.8,0.4
		c0,0.1-0.1,0.3-0.6,0.5c-2.8,1.2-7.1,3.3-9.9,4.9c-0.3,0.2-1.2,0.7-1.4,0.5c-0.2-0.1-0.2-0.4,0-0.9c0.4-1.4-0.2-2.6-0.9-3.8
		c-0.6-1-5.7-9.6-6.7-11.3c-0.9-1.6-2-2.2-2.7-2.2c-0.9,0-1.5,0.7-1.5,2v9.4c0,1.6,0.6,2,1.2,2.7c0.5,0.5,1.1,0.8,2.7,1.7
		c1,0.6,0.8,0.8,0.3,0.8c0,0-13.9,0-14.6,0c-1.4,0-1.3-0.3,0.1-1.1c1-0.6,1.7-1.1,2.1-1.5c0.6-0.5,0.7-0.9,0.7-2.4v-31.9
		c0-1.5-0.2-2-0.7-2.5c-0.5-0.4-0.7-0.6-1.7-1.2c-1.3-0.9-1.4-1.2,0-1.2c0.7,0,12.7,0,12.7,0c0.6,0,0.7,0.2-0.3,0.8
		c-1.1,0.7-1.6,1-2,1.4c-0.7,0.5-0.5,1.2-0.5,1.2V116.8"/>
	<path class="st0" d="M331.7,131.3c-0.4,0.7-0.7,1.6-1.4,0.4c-0.2-0.4-1.3-1.6-2.6-2.1c0,0-6.1-2.3-8.5-8.4c0,0-1.9-5,1.8-10.1
		c0.6-0.8,1.3-1.9,1.4-2.3c0.1-0.4,0.6-0.7,0.9,0.1c0.3,1.1,0.9,1.4,1.5,1.9c1.2,1,9.5,4.7,9.5,11C334.4,125.8,333,129,331.7,131.3z
		 M328.2,140.3c0.3,0,0.6-0.5,0.8-1c0.7-1.9,2.2-4.2,4.9-6.5c1.8-1.6,6.3-5.7,6.3-12.3c0-8-6.9-12.9-9-14.6
		c-2.2-1.7-4.9-4.4-5.2-5.3c-0.2-0.7-0.6-0.8-0.9-0.8c-0.3,0-0.5,0.4-0.8,1.3c-0.4,1.7-2.2,3.3-3.4,4.5c-1.9,1.9-7.8,7-7.8,16
		c0,7,6.1,12.8,10.3,15c1.4,0.7,3.3,2.1,3.9,2.8C327.6,139.7,327.8,140.3,328.2,140.3z"/>
	<path class="st0" d="M243.1,126.7c0.1,0.2,0.2,0.4,1.2,0.4c0.8,0,1.7,0,2.8,0.8c2.2,1.5,5.1,2.5,9,2.5c2.1,0,3.5-0.2,4.4-0.4
		c0.4-0.1,0.7,0,0.7,0.1c0.1,0.1-0.2,0.4-0.7,0.7c-5,2.6-9.2,5.6-12.2,8.7c-0.4,0.4-0.7,0.5-0.8,0.4c-0.2-0.1-0.2-0.4-0.1-1
		c0-0.7,0-1.2-1.4-1.9c-4.9-2.3-11.4-7.1-11.4-15.1c0-8.1,8.3-14,11.4-15.7c2.1-1.2,3.1-2.1,3.6-3c0.3-0.5,0.6-0.8,0.8-0.7
		c0.4,0.1,0.3,0.6,1,1.7c2.1,2.9,6.1,7.1,8.6,9.2c0.9,0.8,1.6,1.2,2.7,1.3c0.3,0,0.6,0.1,0.6,0.3c0,0.4-1.5,0.9-2.3,1.4l-16.7,9.2
		C243.4,126.2,243,126.5,243.1,126.7z M251.6,116c-1.4-1.6-3.1-3.6-4.5-5.6c-0.2-0.4-0.3-0.6-0.4-0.9c-0.1-0.3-0.1-0.5-0.3-0.5
		c-0.3,0-0.5,0.4-1,1c-2.3,2.8-3.4,5.5-3.4,9.4c0,0.5,0.1,1.1,0.2,1.6c0.2,1-0.1,1.7,0.1,1.9c0.2,0.2,0.4,0.1,1-0.2l8.7-5.2
		C253.3,116.9,252.3,116.8,251.6,116z"/>
</g>
</svg>
