<?xml version="1.0" standalone="no"?>
<!DOCTYPE svg PUBLIC "-//W3C//DTD SVG 20010904//EN"
 "http://www.w3.org/TR/2001/REC-SVG-20010904/DTD/svg10.dtd">
<svg version="1.0" xmlns="http://www.w3.org/2000/svg"
 width="225.000000pt" height="225.000000pt" viewBox="0 0 225.000000 225.000000"
 preserveAspectRatio="xMidYMid meet">

<g transform="translate(0.000000,225.000000) scale(0.100000,-0.100000)"
fill="#000000" stroke="none">
<path d="M0 1125 l0 -1125 1125 0 1125 0 0 1125 0 1125 -1125 0 -1125 0 0
-1125z m1202 334 c37 -20 58 -70 58 -136 l0 -63 68 0 c37 0 73 -4 80 -8 13 -9
85 -458 76 -474 -3 -4 -163 -8 -355 -8 -270 0 -351 3 -354 13 -10 24 61 458
76 468 8 5 42 9 75 9 l61 0 6 66 c6 75 25 109 78 137 35 19 92 17 131 -4z"/>
<path d="M1082 1423 c-22 -9 -42 -61 -42 -113 l0 -50 91 0 92 0 -6 62 c-5 51
-10 67 -32 85 -25 22 -71 29 -103 16z"/>
<path d="M880 1206 c0 -5 -48 -318 -55 -363 l-6 -33 306 0 305 0 0 23 c0 12
-11 96 -25 187 -14 91 -25 171 -25 178 0 8 -19 12 -60 12 l-60 0 0 -53 c0 -58
-4 -68 -26 -60 -10 3 -14 22 -14 59 l0 54 -90 0 -90 0 0 -54 c0 -37 -4 -56
-14 -59 -23 -9 -36 15 -36 65 l0 48 -55 0 c-30 0 -55 -2 -55 -4z"/>
</g>
</svg>
