<?xml version="1.0" encoding="utf-8"?>
<!-- Generator: Adobe Illustrator 26.0.1, SVG Export Plug-In . SVG Version: 6.00 Build 0)  -->
<svg version="1.1" id="レイヤー_1" xmlns="http://www.w3.org/2000/svg" xmlns:xlink="http://www.w3.org/1999/xlink" x="0px"
	 y="0px" viewBox="0 0 20 20" style="enable-background:new 0 0 20 20;" xml:space="preserve">
<style type="text/css">
	.st0{fill-rule:evenodd;clip-rule:evenodd;fill:#FFFFFF;}
</style>
<desc>Created with Sketch.</desc>
<g id="foot" transform="translate(-1228.000000, -137.000000)">
	<g id="sns" transform="translate(40.000000, 41.500000)">
		<g transform="translate(1152.000000, 98.000000)">
			<path id="Fill" class="st0" d="M44,12.3c4,0,6.2-3.3,6.2-6.1c0-0.1,0-0.2,0-0.3c0.4-0.3,0.8-0.7,1.1-1.1
				c-0.4,0.2-0.8,0.3-1.3,0.3c0.5-0.3,0.8-0.7,1-1.2c-0.4,0.3-0.9,0.4-1.4,0.5c-0.8-0.9-2.2-0.9-3.1-0.1c-0.6,0.5-0.8,1.3-0.6,2.1
				c-1.8-0.1-3.4-0.9-4.5-2.2c-0.6,1-0.3,2.2,0.7,2.9c-0.3,0-0.7-0.1-1-0.3v0c0,1,0.7,1.9,1.8,2.1c-0.3,0.1-0.7,0.1-1,0
				c0.3,0.9,1.1,1.5,2,1.5c-0.8,0.6-1.7,0.9-2.7,0.9c-0.2,0-0.3,0-0.5,0C41.7,11.9,42.8,12.3,44,12.3"/>
		</g>
	</g>
</g>
</svg>
